<mxfile host="65bd71144e">
    <diagram id="jXSr1_TP0lntF0pmlJ-g" name="第 1 页">
        <mxGraphModel dx="759" dy="595" grid="1" gridSize="10" guides="1" tooltips="1" connect="1" arrows="1" fold="1" page="1" pageScale="1" pageWidth="827" pageHeight="1169" math="0" shadow="0">
            <root>
                <mxCell id="0"/>
                <mxCell id="1" parent="0"/>
                <mxCell id="5" value="" style="edgeStyle=none;html=1;fontSize=25;fontFamily=Times New Roman;" edge="1" parent="1" source="3" target="4">
                    <mxGeometry relative="1" as="geometry"/>
                </mxCell>
                <mxCell id="3" value="x&lt;sub style=&quot;font-size: 25px;&quot;&gt;t&lt;/sub&gt;" style="ellipse;whiteSpace=wrap;html=1;aspect=fixed;fontSize=25;fontFamily=Times New Roman;" vertex="1" parent="1">
                    <mxGeometry x="250" y="120" width="80" height="80" as="geometry"/>
                </mxCell>
                <mxCell id="7" value="" style="edgeStyle=none;html=1;fontSize=25;fontFamily=Times New Roman;" edge="1" parent="1" source="4" target="6">
                    <mxGeometry relative="1" as="geometry"/>
                </mxCell>
                <mxCell id="4" value="RNN" style="ellipse;whiteSpace=wrap;html=1;aspect=fixed;fontSize=25;fontFamily=Times New Roman;" vertex="1" parent="1">
                    <mxGeometry x="410" y="120" width="80" height="80" as="geometry"/>
                </mxCell>
                <mxCell id="6" value="h&lt;sub style=&quot;font-size: 25px&quot;&gt;t&lt;/sub&gt;" style="ellipse;whiteSpace=wrap;html=1;aspect=fixed;fontSize=25;fontFamily=Times New Roman;" vertex="1" parent="1">
                    <mxGeometry x="570" y="120" width="80" height="80" as="geometry"/>
                </mxCell>
                <mxCell id="12" value="" style="curved=1;endArrow=classic;html=1;elbow=vertical;exitX=0.5;exitY=1;exitDx=0;exitDy=0;entryX=0.5;entryY=0;entryDx=0;entryDy=0;" edge="1" parent="1" source="4" target="4">
                    <mxGeometry width="50" height="50" relative="1" as="geometry">
                        <mxPoint x="506" y="200" as="sourcePoint"/>
                        <mxPoint x="556" y="150" as="targetPoint"/>
                        <Array as="points">
                            <mxPoint x="450" y="220"/>
                            <mxPoint x="516" y="210"/>
                            <mxPoint x="526" y="160"/>
                            <mxPoint x="516" y="100"/>
                            <mxPoint x="450" y="90"/>
                        </Array>
                    </mxGeometry>
                </mxCell>
                <mxCell id="13" value="" style="edgeStyle=none;html=1;fontSize=25;fontFamily=Times New Roman;" edge="1" parent="1" source="14" target="16">
                    <mxGeometry relative="1" as="geometry"/>
                </mxCell>
                <mxCell id="14" value="x&lt;span style=&quot;font-size: 25px&quot;&gt;&lt;sub&gt;1&lt;/sub&gt;&lt;/span&gt;" style="ellipse;whiteSpace=wrap;html=1;aspect=fixed;fontSize=25;fontFamily=Times New Roman;" vertex="1" parent="1">
                    <mxGeometry x="250" y="310" width="80" height="80" as="geometry"/>
                </mxCell>
                <mxCell id="15" value="" style="edgeStyle=none;html=1;fontSize=25;fontFamily=Times New Roman;" edge="1" parent="1" source="16" target="17">
                    <mxGeometry relative="1" as="geometry"/>
                </mxCell>
                <mxCell id="34" style="edgeStyle=orthogonalEdgeStyle;curved=1;html=1;exitX=0.5;exitY=1;exitDx=0;exitDy=0;entryX=0.5;entryY=0;entryDx=0;entryDy=0;fontFamily=Times New Roman;fontSize=28;elbow=vertical;" edge="1" parent="1" source="16" target="22">
                    <mxGeometry relative="1" as="geometry"/>
                </mxCell>
                <mxCell id="16" value="RNN" style="ellipse;whiteSpace=wrap;html=1;aspect=fixed;fontSize=25;fontFamily=Times New Roman;" vertex="1" parent="1">
                    <mxGeometry x="410" y="310" width="80" height="80" as="geometry"/>
                </mxCell>
                <mxCell id="17" value="h&lt;span style=&quot;font-size: 25px&quot;&gt;&lt;sub&gt;2&lt;/sub&gt;&lt;/span&gt;" style="ellipse;whiteSpace=wrap;html=1;aspect=fixed;fontSize=25;fontFamily=Times New Roman;" vertex="1" parent="1">
                    <mxGeometry x="570" y="310" width="80" height="80" as="geometry"/>
                </mxCell>
                <mxCell id="19" value="" style="edgeStyle=none;html=1;fontSize=25;fontFamily=Times New Roman;" edge="1" parent="1" source="20" target="22">
                    <mxGeometry relative="1" as="geometry"/>
                </mxCell>
                <mxCell id="20" value="x&lt;span style=&quot;font-size: 25px&quot;&gt;&lt;sub&gt;2&lt;/sub&gt;&lt;/span&gt;" style="ellipse;whiteSpace=wrap;html=1;aspect=fixed;fontSize=25;fontFamily=Times New Roman;" vertex="1" parent="1">
                    <mxGeometry x="250" y="447" width="80" height="80" as="geometry"/>
                </mxCell>
                <mxCell id="21" value="" style="edgeStyle=none;html=1;fontSize=25;fontFamily=Times New Roman;" edge="1" parent="1" source="22" target="23">
                    <mxGeometry relative="1" as="geometry"/>
                </mxCell>
                <mxCell id="35" style="edgeStyle=orthogonalEdgeStyle;curved=1;html=1;exitX=0.5;exitY=1;exitDx=0;exitDy=0;entryX=0.5;entryY=0;entryDx=0;entryDy=0;fontFamily=Times New Roman;fontSize=28;elbow=vertical;" edge="1" parent="1" source="22" target="27">
                    <mxGeometry relative="1" as="geometry"/>
                </mxCell>
                <mxCell id="22" value="RNN" style="ellipse;whiteSpace=wrap;html=1;aspect=fixed;fontSize=25;fontFamily=Times New Roman;" vertex="1" parent="1">
                    <mxGeometry x="410" y="447" width="80" height="80" as="geometry"/>
                </mxCell>
                <mxCell id="23" value="h&lt;span style=&quot;font-size: 25px&quot;&gt;&lt;sub&gt;2&lt;/sub&gt;&lt;/span&gt;" style="ellipse;whiteSpace=wrap;html=1;aspect=fixed;fontSize=25;fontFamily=Times New Roman;" vertex="1" parent="1">
                    <mxGeometry x="570" y="447" width="80" height="80" as="geometry"/>
                </mxCell>
                <mxCell id="24" value="" style="edgeStyle=none;html=1;fontSize=25;fontFamily=Times New Roman;" edge="1" parent="1" source="25" target="27">
                    <mxGeometry relative="1" as="geometry"/>
                </mxCell>
                <mxCell id="25" value="x&lt;sub style=&quot;font-size: 25px;&quot;&gt;t&lt;/sub&gt;" style="ellipse;whiteSpace=wrap;html=1;aspect=fixed;fontSize=25;fontFamily=Times New Roman;" vertex="1" parent="1">
                    <mxGeometry x="250" y="600" width="80" height="80" as="geometry"/>
                </mxCell>
                <mxCell id="26" value="" style="edgeStyle=none;html=1;fontSize=25;fontFamily=Times New Roman;" edge="1" parent="1" source="27" target="28">
                    <mxGeometry relative="1" as="geometry"/>
                </mxCell>
                <mxCell id="27" value="RNN" style="ellipse;whiteSpace=wrap;html=1;aspect=fixed;fontSize=25;fontFamily=Times New Roman;" vertex="1" parent="1">
                    <mxGeometry x="410" y="600" width="80" height="80" as="geometry"/>
                </mxCell>
                <mxCell id="28" value="h&lt;sub style=&quot;font-size: 25px&quot;&gt;t&lt;/sub&gt;" style="ellipse;whiteSpace=wrap;html=1;aspect=fixed;fontSize=25;fontFamily=Times New Roman;" vertex="1" parent="1">
                    <mxGeometry x="570" y="600" width="80" height="80" as="geometry"/>
                </mxCell>
                <mxCell id="36" value="" style="endArrow=none;dashed=1;html=1;dashPattern=1 3;strokeWidth=2;fontFamily=Times New Roman;fontSize=28;curved=1;elbow=vertical;" edge="1" parent="1">
                    <mxGeometry width="50" height="50" relative="1" as="geometry">
                        <mxPoint x="424" y="580" as="sourcePoint"/>
                        <mxPoint x="424" y="540" as="targetPoint"/>
                    </mxGeometry>
                </mxCell>
            </root>
        </mxGraphModel>
    </diagram>
</mxfile>